HIERARCHY
ROOT Hips
{
	OFFSET -0.001795 -0.223333 0.028219
	CHANNELS 6 Xposition Yposition Zposition Zrotation Yrotation Xrotation 
	JOINT LeftUpLeg
	{
		OFFSET 0.069520 -0.091406 -0.006815
		CHANNELS 3 Zrotation Yrotation Xrotation
		JOINT LeftLeg
		{
			OFFSET 0.034277 -0.375199 -0.004496
			CHANNELS 3 Zrotation Yrotation Xrotation
			JOINT LeftFoot
			{
				OFFSET -0.013596 -0.397961 -0.043693
				CHANNELS 3 Zrotation Yrotation Xrotation
				JOINT LeftToe
				{
					OFFSET 0.026358 -0.055791 0.119288
					CHANNELS 3 Zrotation Yrotation Xrotation
					End Site
					{
						OFFSET 0.000000 0.000000 0.000000
					}
				}
			}
		}
	}
	JOINT RightUpLeg
	{
		OFFSET -0.067670 -0.090522 -0.004320
		CHANNELS 3 Zrotation Yrotation Xrotation
		JOINT RightLeg
		{
			OFFSET -0.038290 -0.382569 -0.008850
			CHANNELS 3 Zrotation Yrotation Xrotation
			JOINT RightFoot
			{
				OFFSET 0.015774 -0.398415 -0.042312
				CHANNELS 3 Zrotation Yrotation Xrotation
				JOINT RightToe
				{
					OFFSET -0.025372 -0.048144 0.123348
					CHANNELS 3 Zrotation Yrotation Xrotation
					End Site
					{
						OFFSET 0.000000 0.000000 0.000000
					}
				}
			}
		}
	}
	JOINT Spine
	{
		OFFSET -0.002533 0.108963 -0.026696
		CHANNELS 3 Zrotation Yrotation Xrotation
		JOINT Spine1
		{
			OFFSET 0.005487 0.135180 0.001092
			CHANNELS 3 Zrotation Yrotation Xrotation
			JOINT Spine2
			{
				OFFSET 0.001457 0.052922 0.025425
				CHANNELS 3 Zrotation Yrotation Xrotation
				JOINT Neck
				{
					OFFSET -0.002778 0.213870 -0.042857
					CHANNELS 3 Zrotation Yrotation Xrotation
					JOINT Head
					{
						OFFSET 0.005152 0.064970 0.051349
						CHANNELS 3 Zrotation Yrotation Xrotation
						End Site
						{
							OFFSET 0.000000 0.000000 0.000000
						}
					}
				}
				JOINT LeftShoulder
				{
					OFFSET 0.078845 0.121749 -0.034090
					CHANNELS 3 Zrotation Yrotation Xrotation
					JOINT LeftArm
					{
						OFFSET 0.090977 0.030469 -0.008868
						CHANNELS 3 Zrotation Yrotation Xrotation
						JOINT LeftForeArm
						{
							OFFSET 0.259612 -0.012772 -0.027456
							CHANNELS 3 Zrotation Yrotation Xrotation
							JOINT LeftHand
							{
								OFFSET 0.249234 0.008986 -0.001171
								CHANNELS 3 Zrotation Yrotation Xrotation
								End Site
								{
									OFFSET 0.000000 0.000000 0.000000
								}
							}
						}
					}
				}
				JOINT RightShoulder
				{
					OFFSET -0.081759 0.118833 -0.038615
					CHANNELS 3 Zrotation Yrotation Xrotation
					JOINT RightArm
					{
						OFFSET -0.096012 0.032551 -0.009143
						CHANNELS 3 Zrotation Yrotation Xrotation
						JOINT RightForeArm
						{
							OFFSET -0.253742 -0.013329 -0.021401
							CHANNELS 3 Zrotation Yrotation Xrotation
							JOINT RightHand
							{
								OFFSET -0.255298 0.007772 -0.005559
								CHANNELS 3 Zrotation Yrotation Xrotation
								End Site
								{
									OFFSET 0.000000 0.000000 0.000000
								}
							}
						}
					}
				}
			}
		}
	}
}
MOTION
Frames: 6
Frame Time: 0.050000
0.000000 0.950156 0.000000 -2.713067 -0.208278 7.545436 8.018404 -0.259999 -0.816855 -0.983676 0.332964 -8.928750 4.926580 12.792711 14.040747 0.000000 0.000000 0.000000 -5.011790 0.466849 -4.439759 1.889985 -0.289666 -4.138434 -3.660299 -12.433774 15.357467 0.000000 0.000000 0.000000 -2.531064 0.202806 -5.745293 4.567552 -1.029498 -15.597776 -0.088907 -1.806230 20.129674 -1.031296 1.710333 -21.152818 0.000000 0.000000 0.000000 -19.925003 4.717840 -3.584136 -54.711337 -9.752774 -3.697093 -15.077880 -22.790900 4.252400 0.000000 0.000000 0.000000 12.607152 2.599822 0.140486 60.180809 8.707655 -3.161238 10.839176 22.807451 2.872721 0.000000 0.000000 0.000000 
-0.000071 0.948982 -0.000389 -2.808646 -2.216298 8.040239 7.926146 -0.224169 -0.599362 -0.432350 0.352741 -9.630787 5.572954 13.570599 14.009631 0.000000 0.000000 0.000000 -5.223791 0.542971 -5.311407 2.285994 -0.298035 -3.818827 -2.723986 -10.997701 14.867446 0.000000 0.000000 0.000000 -2.423663 0.275582 -7.826650 4.434048 -1.120531 -14.222767 0.073712 -0.515732 20.436703 -1.511024 2.021269 -20.948023 0.000000 0.000000 0.000000 -19.895175 5.947571 -4.296938 -55.036433 -9.821072 -3.680874 -16.055236 -22.676546 4.438383 0.000000 0.000000 0.000000 12.108300 2.557675 0.170330 61.351406 8.710236 -3.237617 10.103698 24.275464 2.952783 0.000000 0.000000 0.000000 
-0.000041 0.948891 -0.000747 -2.380104 -2.104655 8.012096 7.726321 -0.229816 -0.917226 -0.648855 0.331423 -8.807571 5.367507 13.279659 14.095632 0.000000 0.000000 0.000000 -5.702840 0.543398 -5.329525 2.013192 -0.280601 -3.800413 -2.718316 -10.974609 14.896142 0.000000 0.000000 0.000000 -2.599290 0.272211 -8.011003 4.642272 -1.157487 -14.613760 -0.676085 -0.430880 20.883119 -1.013210 1.738038 -20.729766 0.000000 0.000000 0.000000 -19.918384 5.419175 -4.037179 -54.629095 -9.330758 -3.946809 -15.605925 -22.262200 4.245478 0.000000 0.000000 0.000000 13.744663 3.025048 0.336361 60.128182 8.342938 -3.418841 9.526915 24.979899 2.941958 0.000000 0.000000 0.000000 
-0.000025 0.948479 -0.000991 -2.669043 -3.075888 8.198487 7.903511 -0.219043 -0.942543 -0.717620 0.342598 -8.911534 5.996956 14.153998 14.217809 0.000000 0.000000 0.000000 -5.770561 0.590992 -5.968985 2.265847 -0.281318 -3.252580 -2.599331 -10.943004 15.070639 0.000000 0.000000 0.000000 -2.562879 0.308849 -8.862095 4.721567 -1.236503 -14.111927 -0.560346 -0.469119 20.826871 -1.273691 1.799383 -20.376372 0.000000 0.000000 0.000000 -20.267041 6.593928 -4.603621 -54.656224 -9.184559 -4.008498 -16.195388 -21.712293 4.287406 0.000000 0.000000 0.000000 13.108501 3.152471 0.317700 60.250548 8.168448 -3.524091 10.709139 25.131103 3.170352 0.000000 0.000000 0.000000 
-0.000105 0.948866 -0.001247 -2.617909 -2.849138 7.899691 7.989147 -0.220925 -1.026947 -1.075564 0.341220 -8.489173 5.524976 13.456147 14.195569 0.000000 0.000000 0.000000 -5.793056 0.571102 -5.714491 1.878305 -0.256420 -3.248140 -2.440514 -10.643539 15.109258 0.000000 0.000000 0.000000 -2.514951 0.298875 -8.642733 5.056798 -1.364536 -13.805242 -1.076806 -0.588631 20.706997 -1.074228 1.699505 -20.768772 0.000000 0.000000 0.000000 -19.968511 6.327405 -4.427977 -54.894245 -9.376225 -3.919746 -16.353455 -21.421844 4.251261 0.000000 0.000000 0.000000 13.325525 2.929935 0.203289 60.049020 8.155644 -3.509836 11.404345 25.555284 3.381222 0.000000 0.000000 0.000000 
-0.000217 0.949197 -0.001486 -2.727519 -3.380150 8.126596 7.928077 -0.220025 -1.276403 -0.950637 0.342105 -8.574568 5.738176 13.745066 14.377997 0.000000 0.000000 0.000000 -5.793280 0.594353 -5.978694 1.631367 -0.236059 -3.184689 -2.026147 -10.113662 15.587696 0.000000 0.000000 0.000000 -2.587840 0.319471 -9.154050 5.093437 -1.383222 -13.853357 -0.823250 -0.805394 21.070662 -0.919684 1.530541 -20.888024 0.000000 0.000000 0.000000 -20.061280 6.783313 -4.554990 -55.420215 -9.478103 -3.938029 -16.014131 -20.935032 4.117324 0.000000 0.000000 0.000000 12.497658 2.861102 0.141622 60.411691 8.031284 -3.659625 11.905134 25.392841 3.437740 0.000000 0.000000 0.000000 
